Coordinates
version=1
nRows=19
nColumns=63
inDegrees=yes

Units are S.I. units (second, meters, Newtons, ...)
If the header above contains a line with 'inDegrees', this indicates whether rotational values are in degrees (yes) or radians (no).

endheader
time	pelvis_tilt	pelvis_list	pelvis_rotation	pelvis_tx	pelvis_ty	pelvis_tz	hip_flexion_r	hip_adduction_r	hip_rotation_r	knee_angle_r	knee_angle_r_beta	ankle_angle_r	subtalar_angle_r	mtp_angle_r	hip_flexion_l	hip_adduction_l	hip_rotation_l	knee_angle_l	knee_angle_l_beta	ankle_angle_l	subtalar_angle_l	mtp_angle_l	L5_S1_Flex_Ext	L5_S1_Lat_Bending	L5_S1_axial_rotation	L4_L5_Flex_Ext	L4_L5_Lat_Bending	L4_L5_axial_rotation	L3_L4_Flex_Ext	L3_L4_Lat_Bending	L3_L4_axial_rotation	L2_L3_Flex_Ext	L2_L3_Lat_Bending	L2_L3_axial_rotation	L1_L2_Flex_Ext	L1_L2_Lat_Bending	L1_L2_axial_rotation	L1_T12_Flex_Ext	L1_T12_Lat_Bending	L1_T12_axial_rotation	Abs_r3	Abs_r2	Abs_r1	Abs_t1	Abs_t2	neck_flexion	neck_bending	neck_rotation	arm_flex_r	arm_add_r	arm_rot_r	elbow_flex_r	pro_sup_r	wrist_flex_r	wrist_dev_r	arm_flex_l	arm_add_l	arm_rot_l	elbow_flex_l	pro_sup_l	wrist_flex_l	wrist_dev_l
2.440678	-3.152425	-3.453049	91.931649	0.239689	0.908372	0.561741	-2.689625	-2.802617	2.862262	6.158655	0.107489	19.684007	-3.148735	0.000000	-4.034289	0.537194	4.857720	0.683431	0.011928	20.607293	-2.847265	0.000000	-0.043774	-0.624331	-0.734300	-0.081293	-0.830360	-0.780194	-0.071916	-1.517998	-0.780194	-0.050029	-1.517998	-0.642513	-0.040649	-1.273135	-0.596619	-0.025012	-0.967088	-0.550725	-0.312673	-7.062555	-4.083957	0.000000	0.000000	14.732655	9.437579	2.605290	70.898659	-100.560308	39.870544	19.961173	3.700058	-15.365578	10.265118	61.521471	-107.382988	63.778939	3.468625	75.809301	-3.166391	-2.243924
2.457627	-3.174656	-3.573943	91.937402	0.239505	0.908367	0.561491	-2.584928	-2.841075	2.910791	6.114358	0.106716	19.738829	-3.251647	0.000000	-3.911135	0.574986	4.795075	0.674017	0.011764	20.715159	-2.750012	0.000000	-0.038506	-0.631423	-0.701097	-0.071509	-0.839792	-0.744915	-0.063261	-1.535242	-0.744915	-0.044008	-1.535242	-0.613460	-0.035756	-1.287598	-0.569641	-0.022002	-0.978074	-0.525823	-0.275042	-7.142782	-3.899290	0.000000	0.000000	14.877083	9.404989	2.153051	72.003687	-100.781532	40.466633	20.359817	3.644498	-15.624853	10.284583	61.291518	-107.333669	63.781831	3.481967	75.760225	-3.057737	-2.216982
2.474576	-3.206794	-3.682578	91.992450	0.239307	0.908370	0.561156	-2.510554	-2.880018	2.913682	6.068571	0.105917	19.740987	-3.387832	0.000000	-3.799241	0.613111	4.520826	0.665066	0.011608	20.855838	-2.290182	0.000000	-0.033671	-0.641041	-0.667779	-0.062530	-0.852584	-0.709515	-0.055317	-1.558627	-0.709515	-0.038482	-1.558627	-0.584306	-0.031267	-1.307211	-0.542570	-0.019239	-0.992972	-0.500834	-0.240506	-7.251583	-3.713986	0.000000	0.000000	15.004053	9.383111	1.611922	72.802455	-101.122224	41.831861	20.660128	3.648862	-15.863613	10.266976	60.972872	-107.252036	63.659039	3.484284	75.607125	-2.976790	-2.160943
2.491525	-3.235404	-3.766171	92.114974	0.239019	0.908386	0.560764	-2.480233	-2.911436	2.782717	6.024791	0.105152	19.719116	-3.446140	0.000000	-3.709625	0.640503	4.234062	0.656836	0.011464	20.995111	-1.720992	0.000000	-0.030079	-0.649493	-0.647829	-0.055859	-0.863825	-0.688318	-0.049416	-1.579177	-0.688318	-0.034377	-1.579177	-0.566850	-0.027931	-1.324446	-0.526361	-0.017187	-1.006064	-0.485872	-0.214850	-7.347193	-3.603030	0.000000	0.000000	15.084903	9.353765	1.122566	73.298023	-101.491705	43.253238	20.874795	3.680870	-16.042355	10.203803	60.783414	-107.180038	63.543147	3.484690	75.390003	-2.958263	-2.061408
2.508475	-3.247992	-3.823783	92.276495	0.238705	0.908406	0.560315	-2.488994	-2.921022	2.550601	5.986671	0.104487	19.672515	-3.434346	0.000000	-3.645159	0.643876	3.810025	0.648623	0.011321	21.172063	-0.914410	0.000000	-0.026593	-0.655395	-0.635123	-0.049385	-0.871675	-0.674818	-0.043689	-1.593527	-0.674818	-0.030393	-1.593527	-0.555732	-0.024694	-1.336481	-0.516037	-0.015195	-1.015207	-0.476342	-0.189949	-7.413958	-3.532363	0.000000	0.000000	15.130893	9.335461	0.649225	73.514421	-101.881814	44.652993	21.011282	3.614541	-16.261141	10.104278	60.671115	-107.095344	63.524981	3.459442	75.057190	-2.965330	-1.900636
2.525424	-3.272053	-3.842351	92.492033	0.238356	0.908455	0.559851	-2.550753	-2.936248	2.197642	5.956579	0.103962	19.624411	-3.339233	0.000000	-3.619110	0.651974	3.476965	0.641699	0.011200	21.320404	-0.169057	0.000000	-0.024924	-0.661506	-0.639843	-0.046287	-0.879803	-0.679833	-0.040948	-1.608386	-0.679833	-0.028486	-1.608386	-0.559862	-0.023145	-1.348944	-0.519872	-0.014242	-1.024673	-0.479882	-0.178031	-7.483091	-3.558614	0.000000	0.000000	15.109882	9.308640	0.293411	73.929885	-102.164642	45.545463	21.093038	3.578916	-16.394467	9.970177	60.718352	-107.025997	63.302282	3.417815	74.874153	-3.033831	-1.714452
2.542373	-3.312871	-3.820540	92.723352	0.238054	0.908533	0.559388	-2.657989	-2.960970	1.811022	5.938170	0.103641	19.570788	-3.221200	0.000000	-3.636416	0.669300	3.044013	0.636330	0.011106	21.486943	0.741040	0.000000	-0.025060	-0.668992	-0.651678	-0.046538	-0.889760	-0.692408	-0.041171	-1.626588	-0.692408	-0.028641	-1.626588	-0.570218	-0.023270	-1.364209	-0.529488	-0.014319	-1.036269	-0.488758	-0.178999	-7.567777	-3.624437	0.000000	0.000000	15.028231	9.285019	0.000598	74.508637	-102.369137	46.178922	21.093474	3.518435	-16.474713	9.815951	60.809996	-106.942223	62.793302	3.352352	74.885244	-3.114230	-1.500126
2.559322	-3.349013	-3.765066	92.986735	0.237718	0.908634	0.558964	-2.799619	-2.978287	1.356614	5.929100	0.103482	19.515210	-3.035704	0.000000	-3.686468	0.679530	2.842900	0.633424	0.011055	21.591752	1.375469	0.000000	-0.026862	-0.673719	-0.677354	-0.049885	-0.896046	-0.719689	-0.044131	-1.638080	-0.719689	-0.030700	-1.638080	-0.592685	-0.024944	-1.373848	-0.550350	-0.015349	-1.043591	-0.508016	-0.191870	-7.621243	-3.767241	0.000000	0.000000	14.887082	9.240325	-0.146731	74.901308	-102.499923	46.517023	20.956749	3.452809	-16.414639	9.671443	61.072819	-106.871995	62.369103	3.282521	74.888218	-3.222808	-1.300534
2.576271	-3.377542	-3.688295	93.278500	0.237355	0.908752	0.558604	-2.956789	-2.984924	0.876049	5.930444	0.103506	19.456006	-2.825054	0.000000	-3.754860	0.680545	2.902104	0.634745	0.011078	21.630097	1.696412	0.000000	-0.029845	-0.675454	-0.714480	-0.055425	-0.898354	-0.759135	-0.049032	-1.642299	-0.759135	-0.034110	-1.642299	-0.625170	-0.027714	-1.377386	-0.580515	-0.017053	-1.046278	-0.535860	-0.213180	-7.640872	-3.973724	0.000000	0.000000	14.705037	9.164066	-0.164712	75.083394	-102.589109	46.663200	20.692231	3.366331	-16.217779	9.559925	61.484509	-106.812255	61.957261	3.228866	75.000573	-3.366617	-1.127801
2.593220	-3.402702	-3.594120	93.579751	0.236981	0.908893	0.558309	-3.125826	-2.992476	0.299043	5.935164	0.103588	19.421317	-2.467671	0.000000	-3.838892	0.675547	2.957076	0.639991	0.011170	21.678055	2.073806	0.000000	-0.033903	-0.674797	-0.760368	-0.062960	-0.897480	-0.807891	-0.055699	-1.640701	-0.807891	-0.038747	-1.640701	-0.665322	-0.031482	-1.376046	-0.617799	-0.019372	-1.045261	-0.570276	-0.242163	-7.633438	-4.228939	0.000000	0.000000	14.473319	9.073408	-0.044151	75.158234	-102.603423	46.452521	20.309981	3.326783	-15.888083	9.489916	62.033423	-106.772006	61.942156	3.175582	74.813211	-3.504752	-1.031961
2.610169	-3.426918	-3.492030	93.892343	0.236599	0.909039	0.558095	-3.294679	-3.002274	-0.335035	5.946727	0.103790	19.425754	-2.024061	0.000000	-3.927802	0.670154	3.192752	0.647245	0.011297	21.712628	2.230633	0.000000	-0.039100	-0.672276	-0.815035	-0.072613	-0.894128	-0.865975	-0.064238	-1.634573	-0.865975	-0.044688	-1.634573	-0.713156	-0.036309	-1.370906	-0.662216	-0.022342	-1.041356	-0.611277	-0.279290	-7.604925	-4.532983	0.000000	0.000000	14.215970	8.967353	0.203792	75.043003	-102.571069	46.050589	19.828014	3.295731	-15.433967	9.440070	62.687611	-106.744932	61.966882	3.133491	74.683242	-3.668680	-0.995468
2.627119	-3.466016	-3.396836	94.208927	0.236285	0.909187	0.557993	-3.445864	-3.017066	-0.840462	5.966657	0.104138	19.418569	-1.773857	0.000000	-4.002985	0.679825	3.761020	0.657034	0.011467	21.689183	1.921828	0.000000	-0.045002	-0.671444	-0.877554	-0.083574	-0.893020	-0.932402	-0.073934	-1.632548	-0.932402	-0.051433	-1.632548	-0.767860	-0.041789	-1.369208	-0.713013	-0.025714	-1.040066	-0.658166	-0.321448	-7.595506	-4.880695	0.000000	0.000000	13.969140	8.862620	0.534542	74.952633	-102.523920	45.815102	19.359532	3.189200	-14.986523	9.376271	63.321150	-106.757587	61.962571	3.116366	74.796543	-3.838219	-1.011681
2.644068	-3.508653	-3.306278	94.451863	0.236103	0.909335	0.557989	-3.572803	-3.040470	-1.292154	5.992429	0.104588	19.457356	-1.489478	0.000000	-4.072580	0.697240	4.357179	0.664902	0.011605	21.670814	1.469181	0.000000	-0.050905	-0.670420	-0.932920	-0.094535	-0.891658	-0.991228	-0.083631	-1.630058	-0.991228	-0.058179	-1.630058	-0.816305	-0.047270	-1.367120	-0.757998	-0.029087	-1.038480	-0.699690	-0.363606	-7.583920	-5.188624	0.000000	0.000000	13.712940	8.718610	0.939420	74.780518	-102.455081	45.600301	18.866300	3.239460	-14.383557	9.297583	63.948056	-106.769230	61.964400	3.058615	74.973269	-3.964967	-1.150223
2.661017	-3.563249	-3.226130	94.668333	0.235981	0.909481	0.558100	-3.673037	-3.078218	-1.707566	6.032226	0.105282	19.542074	-1.218080	0.000000	-4.124571	0.729200	5.005921	0.674306	0.011769	21.652200	0.900171	0.000000	-0.056918	-0.670591	-0.994791	-0.105703	-0.891886	-1.056965	-0.093511	-1.630475	-1.056965	-0.065052	-1.630475	-0.870442	-0.052854	-1.367469	-0.808268	-0.032523	-1.038745	-0.746093	-0.406561	-7.585858	-5.532728	0.000000	0.000000	13.462974	8.586735	1.429551	74.416666	-102.341945	45.446607	18.398382	3.311683	-13.779689	9.195796	64.597990	-106.821836	62.000549	2.992113	75.222235	-4.069081	-1.288606
2.677966	-3.623273	-3.154368	94.861278	0.235935	0.909627	0.558301	-3.755038	-3.117760	-2.029992	6.073845	0.106009	19.645062	-1.051924	0.000000	-4.161754	0.766143	5.565371	0.686086	0.011974	21.655732	0.418856	0.000000	-0.063040	-0.672080	-1.061184	-0.117072	-0.893867	-1.127508	-0.103569	-1.634096	-1.127508	-0.072049	-1.634096	-0.928536	-0.058539	-1.370506	-0.862212	-0.036021	-1.041052	-0.795888	-0.450292	-7.602704	-5.901986	0.000000	0.000000	13.225500	8.457328	1.945905	74.110778	-102.159674	45.232916	17.997957	3.378669	-13.246781	9.057364	65.207778	-106.908499	62.163307	2.915708	75.333122	-4.156218	-1.371392
2.694915	-3.682934	-3.100028	95.017866	0.235944	0.909767	0.558553	-3.806487	-3.162026	-2.349412	6.121787	0.106845	19.778693	-0.849438	0.000000	-4.179699	0.805401	6.027715	0.698208	0.012186	21.634863	0.007573	0.000000	-0.067595	-0.674192	-1.125378	-0.125530	-0.896676	-1.195714	-0.111051	-1.639231	-1.195714	-0.077254	-1.639231	-0.984706	-0.062769	-1.374813	-0.914370	-0.038624	-1.044324	-0.844033	-0.482823	-7.626599	-6.259015	0.000000	0.000000	13.003204	8.365179	2.495669	73.699209	-101.950455	45.043320	17.628398	3.448226	-12.740701	8.906060	65.770881	-107.004434	62.374207	2.819131	75.344556	-4.206799	-1.400330
2.711864	-3.727338	-3.064857	95.138729	0.235971	0.909878	0.558831	-3.829434	-3.195110	-2.607754	6.165163	0.107602	19.903018	-0.672709	0.000000	-4.178807	0.834115	6.440945	0.710915	0.012408	21.567902	-0.395896	0.000000	-0.070845	-0.675127	-1.184271	-0.131567	-0.897918	-1.258288	-0.116392	-1.641503	-1.258288	-0.080969	-1.641503	-1.036237	-0.065787	-1.376718	-0.962220	-0.040481	-1.045771	-0.888203	-0.506042	-7.637166	-6.586560	0.000000	0.000000	12.833143	8.314168	3.023847	73.099119	-101.730608	44.849400	17.282294	3.485452	-12.332767	8.769927	66.301113	-107.112655	62.627738	2.725449	75.345976	-4.235339	-1.383218
2.728814	-3.746711	-3.048503	95.263377	0.235990	0.909969	0.559099	-3.839499	-3.197890	-2.759752	6.182410	0.107903	19.945361	-0.652785	0.000000	-4.161100	0.838035	6.916428	0.723722	0.012631	21.396743	-0.892063	0.000000	-0.073428	-0.674682	-1.237427	-0.136363	-0.897327	-1.314766	-0.120634	-1.640422	-1.314766	-0.083921	-1.640422	-1.082748	-0.068185	-1.375811	-1.005409	-0.041957	-1.045082	-0.928070	-0.524487	-7.632137	-6.882197	0.000000	0.000000	12.722816	8.268949	3.418768	72.643144	-101.515625	44.578618	17.006676	3.511543	-12.033011	8.657376	66.739458	-107.194455	62.746428	2.646979	75.287965	-4.292415	-1.245164
2.745763	-3.772038	-3.060015	95.370771	0.236095	0.910035	0.559330	-3.823890	-3.203821	-2.849605	6.184338	0.107937	19.937752	-0.693617	0.000000	-4.121234	0.845473	7.230552	0.739178	0.012901	21.163073	-1.192547	0.000000	-0.074820	-0.678889	-1.273568	-0.138947	-0.902922	-1.353166	-0.122921	-1.650651	-1.353166	-0.085511	-1.650651	-1.114372	-0.069477	-1.384391	-1.034774	-0.042752	-1.051599	-0.955176	-0.534428	-7.679729	-7.083203	0.000000	0.000000	12.693549	8.285524	3.578783	72.719219	-101.334670	44.414177	16.834831	3.527980	-11.897368	8.549101	66.880337	-107.231728	62.363788	2.579247	75.418876	-4.343904	-1.060512
